<?xml version="1.0" encoding="UTF-8" standalone="no"?>
<!-- Created with Inkscape (http://www.inkscape.org/) -->

<svg
   width="5.6647496cm"
   height="7.8814468cm"
   viewBox="0 0 7.5529998 10.508596"
   version="1.1"
   id="svg5"
   inkscape:version="1.2.2 (b0a8486541, 2022-12-01)"
   sodipodi:docname="logo.svg"
   xmlns:inkscape="http://www.inkscape.org/namespaces/inkscape"
   xmlns:sodipodi="http://sodipodi.sourceforge.net/DTD/sodipodi-0.dtd"
   xmlns="http://www.w3.org/2000/svg"
   xmlns:svg="http://www.w3.org/2000/svg">
  <sodipodi:namedview
     id="namedview7"
     pagecolor="#ffffff"
     bordercolor="#000000"
     borderopacity="0.25"
     inkscape:showpageshadow="2"
     inkscape:pageopacity="0.0"
     inkscape:pagecheckerboard="0"
     inkscape:deskcolor="#d1d1d1"
     inkscape:document-units="mm"
     showgrid="false"
     inkscape:zoom="0.64693624"
     inkscape:cx="-0.77287369"
     inkscape:cy="243.45521"
     inkscape:window-width="1508"
     inkscape:window-height="643"
     inkscape:window-x="26"
     inkscape:window-y="23"
     inkscape:window-maximized="0"
     inkscape:current-layer="layer1" />
  <defs
     id="defs2" />
  <g
     inkscape:label="Layer 1"
     inkscape:groupmode="layer"
     id="layer1"
     transform="translate(-45.426239,-121.57734)">
    <rect
       style="fill:#ffffff;stroke-width:0.305429"
       id="rect367"
       width="7.553"
       height="10.508596"
       x="45.426239"
       y="121.57734" />
    <rect
       style="fill:#000000;fill-opacity:1;stroke:none;stroke-width:0.280578"
       id="rect1014"
       width="6.553"
       height="6.553"
       x="45.926239"
       y="122.36831" />
    <path
       d="m 51.604447,123.7765 h -1.123243 l -1.247422,2.85045 -1.303865,-2.85045 h -1.117599 v 0.10725 c 0.462844,0.0226 0.524933,0.0847 0.536221,0.508 v 2.29164 c -0.01129,0.59831 -0.08467,0.69427 -0.54751,0.72249 v 0.10724 h 1.326443 v -0.10724 c -0.434622,-0.0226 -0.519288,-0.14111 -0.530577,-0.72249 v -2.27471 l 1.416754,3.10444 h 0.07902 l 1.444977,-3.23426 v 2.55693 c -0.0056,0.47978 -0.06773,0.54187 -0.513644,0.57009 v 0.10724 h 1.580443 v -0.10724 c -0.406399,-0.0226 -0.479777,-0.1016 -0.491066,-0.508 v -2.50613 c 0.01129,-0.4064 0.07902,-0.47978 0.491066,-0.508 z"
       style="font-size:5.64444px;font-family:serif;-inkscape-font-specification:serif;fill:#ffffff;stroke-width:0.265"
       id="path292" />
    <path
       d="m 45.92614,131.44142 h 0.901699 c 0.3683,0 0.701675,-0.10477 0.898525,-0.28257 0.206375,-0.18733 0.32385,-0.4699 0.32385,-0.77788 0,-0.28575 -0.09207,-0.5334 -0.269875,-0.70802 -0.2159,-0.21908 -0.561975,-0.33338 -0.99695,-0.33338 H 45.92614 v 0.0603 c 0.250825,0.0222 0.276225,0.0476 0.2794,0.28575 v 1.4097 c -0.0032,0.23177 -0.04127,0.26987 -0.2794,0.28575 z m 0.603249,-1.86055 c 0,-0.0984 0.03175,-0.12382 0.1651,-0.12382 0.276225,0 0.479425,0.0508 0.631825,0.15875 0.24765,0.17145 0.377825,0.4445 0.377825,0.7874 0,0.37465 -0.130175,0.64135 -0.38735,0.79057 -0.161925,0.0921 -0.346075,0.13018 -0.6223,0.13018 -0.127,0 -0.1651,-0.0286 -0.1651,-0.13018 z"
       style="font-size:3.175px;font-family:serif;-inkscape-font-specification:serif;fill:#000000;stroke:none;stroke-width:0.265"
       id="path295" />
    <path
       d="m 49.313865,129.29512 c -0.606425,0 -1.038225,0.45403 -1.038225,1.09538 0,0.29845 0.1016,0.59055 0.27305,0.77152 0.18415,0.20003 0.466725,0.32385 0.746125,0.32385 0.625475,0 1.057275,-0.44132 1.057275,-1.08267 0,-0.31433 -0.09207,-0.58738 -0.2667,-0.7747 -0.200025,-0.21908 -0.466725,-0.33338 -0.771525,-0.33338 z m 0,0.1143 c 0.14605,0 0.2921,0.0571 0.4064,0.15875 0.17145,0.15558 0.269875,0.45403 0.269875,0.83185 0,0.18733 -0.0381,0.4064 -0.104775,0.5715 -0.02858,0.0794 -0.08255,0.15875 -0.155575,0.23178 -0.111125,0.11112 -0.254,0.16827 -0.422275,0.16827 -0.14605,0 -0.288925,-0.0571 -0.403225,-0.15557 -0.161925,-0.14605 -0.2667,-0.46673 -0.2667,-0.81915 0,-0.32385 0.0889,-0.63183 0.22225,-0.78105 0.123825,-0.13653 0.2794,-0.20638 0.454025,-0.20638 z"
       style="font-size:3.175px;font-family:serif;-inkscape-font-specification:serif;fill:#000000;stroke:none;stroke-width:0.265"
       id="path297" />
    <path
       d="m 52.438066,130.0095 -0.02857,-0.71438 h -0.06668 c -0.01905,0.0667 -0.06985,0.10478 -0.13335,0.10478 -0.02857,0 -0.0762,-0.01 -0.123825,-0.0254 -0.155575,-0.054 -0.314325,-0.0794 -0.46355,-0.0794 -0.26035,0 -0.523875,0.0984 -0.720725,0.27305 -0.22225,0.19685 -0.3429,0.48895 -0.3429,0.8382 0,0.6477 0.422275,1.0795 1.0541,1.0795 0.358775,0 0.676275,-0.14605 0.866775,-0.40322 l -0.05715,-0.0572 c -0.231775,0.22542 -0.4445,0.32067 -0.708025,0.32067 -0.200025,0 -0.377825,-0.0635 -0.51435,-0.18415 -0.174625,-0.15557 -0.27305,-0.44132 -0.27305,-0.79692 0,-0.57468 0.295275,-0.94298 0.75565,-0.94298 0.180975,0 0.346075,0.0667 0.473075,0.1905 0.1016,0.1016 0.149225,0.1905 0.20955,0.39688 z"
       style="font-size:3.175px;font-family:serif;-inkscape-font-specification:serif;fill:#000000;stroke:none;stroke-width:0.265"
       id="path299" />
  </g>
</svg>
